<?xml version="1.0" encoding="UTF-8" standalone="no"?>
<svg
   xmlns:dc="http://purl.org/dc/elements/1.1/"
   xmlns:cc="http://creativecommons.org/ns#"
   xmlns:rdf="http://www.w3.org/1999/02/22-rdf-syntax-ns#"
   xmlns:svg="http://www.w3.org/2000/svg"
   xmlns="http://www.w3.org/2000/svg"
   xml:space="preserve"
   enable-background="new 0 0 146.128 86.195"
   viewBox="0 0 146.128 86.195"
   height="86.195px"
   width="146.128px"
   y="0px"
   x="0px"
   id="Layer_1"
   version="1.1"><metadata
     id="metadata79"><rdf:RDF><cc:Work
         rdf:about=""><dc:format>image/svg+xml</dc:format><dc:type
           rdf:resource="http://purl.org/dc/dcmitype/StillImage" /></cc:Work></rdf:RDF></metadata><defs
     id="defs77" /><rect
     id="rect2"
     height="31.502"
     width="31.502"
     y="5.489"
     x="2.963" /><polygon
     id="polygon4"
     points="34.208,75.857 2.74,81.315 2.74,54.846 34.208,49.391 " /><g
     id="g30"><g
       id="g28"><path
         id="path6"
         d="M46.283,69.751c-0.838,0.652-1.976,0.979-3.42,0.979l-3.658,0.02v-1.13v-0.016v-10.59h-1.608v-1.423h5.266    c1.259,0,2.25,0.304,2.978,0.906c0.727,0.605,1.089,1.472,1.089,2.606c0,0.762-0.191,1.392-0.571,1.883    c-0.223,0.296-0.501,0.553-0.834,0.757c0.543,0.237,0.975,0.557,1.293,0.963c0.495,0.578,0.74,1.293,0.74,2.143    C47.558,68.107,47.132,69.073,46.283,69.751z M44.656,59.568c-0.466-0.37-1.082-0.555-1.848-0.555h-1.976v4.16h1.811    c0.812,0,1.466-0.199,1.959-0.595c0.467-0.37,0.702-0.874,0.702-1.514C45.304,60.439,45.088,59.938,44.656,59.568z M45.155,65.188    c-0.257-0.187-0.58-0.332-0.959-0.436c-0.382-0.104-0.845-0.156-1.388-0.156h-1.976v4.711h1.94c1.021,0,1.812-0.21,2.365-0.627    c0.53-0.418,0.794-1.002,0.794-1.756C45.932,66.134,45.672,65.556,45.155,65.188z"
         fill="#414042" /><path
         id="path8"
         d="M49.721,70.729v-1.126v-10.59h-1.59v-1.423h3.142v11.716h1.572v1.423H49.721z"
         fill="#414042" /><path
         id="path10"
         d="M60.732,70.729v-0.925c-0.306,0.224-0.676,0.434-1.108,0.63c-0.64,0.281-1.299,0.425-1.976,0.425    c-0.372,0-0.711-0.053-1.016-0.156c-0.308-0.104-0.586-0.276-0.832-0.511c-0.457-0.453-0.686-1.059-0.686-1.808V62.82h-1.533    v-1.423h3.086v6.818c0,0.79,0.381,1.184,1.145,1.184c0.494,0,1.017-0.144,1.572-0.427c0.528-0.281,0.978-0.608,1.347-0.976v-5.473    v-1.127h1.555v7.909h1.514v1.423H60.732z"
         fill="#414042" /><path
         id="path12"
         d="M65.907,66.571c0.111,0.839,0.433,1.521,0.962,2.052c0.639,0.666,1.456,0.996,2.439,0.996    c0.161,0,0.361-0.027,0.601-0.08c0.24-0.054,0.477-0.121,0.711-0.196c0.234-0.073,0.449-0.145,0.647-0.224    c0.197-0.07,0.339-0.129,0.424-0.161l0.388,1.272c-0.419,0.16-0.784,0.286-1.088,0.379c-0.312,0.094-0.631,0.18-0.964,0.261    c-0.332,0.078-0.621,0.118-0.867,0.118c-1.393,0-2.538-0.467-3.436-1.403c-0.913-0.913-1.369-2.081-1.369-3.512    c0-1.404,0.444-2.579,1.33-3.528c0.899-0.923,2.04-1.385,3.418-1.385c1.357,0,2.459,0.453,3.309,1.364    c0.432,0.471,0.757,1.027,0.979,1.672c0.222,0.647,0.356,1.44,0.408,2.375H65.907z M71.155,63.356    c-0.552-0.529-1.263-0.794-2.125-0.794c-0.912,0-1.663,0.334-2.254,0.997c-0.38,0.421-0.648,0.95-0.795,1.59h6.136    C71.943,64.436,71.623,63.837,71.155,63.356z"
         fill="#414042" /><path
         id="path14"
         d="M94.042,67.256c-0.303,0.764-0.761,1.429-1.377,1.996c-1.206,1.108-2.752,1.661-4.637,1.661    c-1.996,0-3.629-0.634-4.899-1.9c-0.652-0.628-1.135-1.352-1.448-2.164c-0.316-0.811-0.473-1.714-0.473-2.698    c0-1.935,0.627-3.547,1.884-4.842c1.244-1.278,2.812-1.92,4.693-1.92c1.013,0,1.979,0.225,2.902,0.664    c0.641,0.321,1.195,0.718,1.664,1.183v-0.72h1.424v3.771h-1.351c-0.186-0.628-0.424-1.145-0.721-1.545    c-0.296-0.4-0.658-0.741-1.089-1.025c-0.876-0.553-1.812-0.83-2.809-0.83c-1.443,0-2.632,0.484-3.567,1.458    c-0.938,0.973-1.405,2.243-1.405,3.807c0,1.527,0.486,2.791,1.459,3.79c0.962,0.987,2.211,1.478,3.753,1.478    c1.22,0,2.29-0.339,3.214-1.017c0.813-0.605,1.324-1.436,1.535-2.496h-5.117v-1.421h6.836    C94.501,65.568,94.343,66.492,94.042,67.256z"
         fill="#414042" /><path
         id="path16"
         d="M100.979,70.729v-0.925c-0.183,0.136-0.368,0.258-0.555,0.362c-0.184,0.104-0.379,0.205-0.591,0.305    c-0.591,0.258-1.163,0.388-1.717,0.388c-0.878,0-1.597-0.284-2.163-0.849c-0.566-0.593-0.849-1.27-0.849-2.033    c0-0.862,0.332-1.584,0.998-2.163c0.664-0.555,1.521-0.832,2.567-0.832c0.382,0,0.813,0.057,1.294,0.167    c0.172,0.046,0.344,0.103,0.509,0.158c0.164,0.055,0.335,0.126,0.506,0.211V63.93c0-0.542-0.164-0.917-0.498-1.126    c-0.382-0.247-0.893-0.37-1.534-0.37c-0.171,0-0.364,0.021-0.581,0.062c-0.217,0.044-0.426,0.096-0.63,0.157    c-0.202,0.062-0.386,0.122-0.555,0.176c-0.166,0.058-0.287,0.096-0.358,0.121l-0.444-1.11c0.355-0.146,0.669-0.259,0.935-0.34    c0.264-0.079,0.548-0.159,0.849-0.23c0.302-0.075,0.574-0.109,0.825-0.109c0.553,0,1.045,0.049,1.475,0.154    c0.432,0.106,0.803,0.273,1.11,0.507c0.642,0.48,0.961,1.182,0.961,2.108v5.377h1.459v1.423H100.979z M100.979,66.941    c-0.294-0.16-0.608-0.309-0.94-0.443c-0.407-0.135-0.807-0.202-1.202-0.202c-0.702,0-1.24,0.172-1.606,0.517    c-0.369,0.333-0.557,0.746-0.557,1.24c0,0.38,0.149,0.725,0.445,1.033c0.294,0.292,0.702,0.442,1.218,0.442    c0.445,0,0.924-0.129,1.442-0.387c0.48-0.248,0.88-0.537,1.2-0.87V66.941z"
         fill="#414042" /><path
         id="path18"
         d="M105.785,70.729v-1.126v-10.59h-1.589v-1.423h3.141v11.716h1.571v1.423H105.785z"
         fill="#414042" /><path
         id="path20"
         d="M111.142,70.729v-1.126v-10.59h-1.586v-1.423h3.141v11.716h1.572v1.423H111.142z"
         fill="#414042" /><path
         id="path22"
         d="M116.373,66.571c0.113,0.839,0.432,1.521,0.96,2.052c0.643,0.666,1.456,0.996,2.442,0.996    c0.157,0,0.359-0.027,0.599-0.08c0.24-0.054,0.477-0.121,0.712-0.196c0.232-0.073,0.45-0.145,0.647-0.224    c0.196-0.07,0.338-0.129,0.424-0.161l0.387,1.272c-0.417,0.16-0.781,0.286-1.089,0.379c-0.309,0.094-0.628,0.18-0.962,0.261    c-0.33,0.078-0.621,0.118-0.866,0.118c-1.395,0-2.538-0.467-3.438-1.403c-0.914-0.913-1.367-2.081-1.367-3.512    c0-1.404,0.443-2.579,1.328-3.528c0.9-0.923,2.042-1.385,3.421-1.385c1.355,0,2.456,0.453,3.307,1.364    c0.431,0.471,0.757,1.027,0.979,1.672c0.222,0.647,0.358,1.44,0.406,2.375H116.373z M121.621,63.356    c-0.554-0.529-1.263-0.794-2.125-0.794c-0.911,0-1.662,0.334-2.254,0.997c-0.381,0.421-0.646,0.95-0.795,1.59h6.136    C122.412,64.436,122.09,63.837,121.621,63.356z"
         fill="#414042" /><path
         id="path24"
         d="M131.119,62.782c-0.615,0-1.135,0.076-1.559,0.221c-0.428,0.148-0.77,0.342-1.026,0.574    c-0.261,0.237-0.46,0.507-0.602,0.814s-0.212,0.74-0.212,1.293v3.622h1.792v1.423h-3.346v-1.126V62.82h-1.661v-1.423h3.215v0.924    c0.099-0.123,0.209-0.209,0.332-0.258c0.123-0.047,0.253-0.11,0.388-0.186c0.183-0.087,0.389-0.158,0.608-0.22    c0.225-0.064,0.456-0.112,0.694-0.15c0.241-0.035,0.48-0.061,0.722-0.074c0.24-0.009,0.463-0.016,0.674-0.016l0.628,0.016v1.349    H131.119z"
         fill="#414042" /><path
         id="path26"
         d="M141.615,62.82l-4.722,12.502h-1.478l1.838-5.13l-3.029-7.372h-1.535v-1.423h2.568l0.389,1.018    l2.363,5.801l2.054-5.396h-1.257v-1.423h4.231v1.423H141.615z"
         fill="#414042" /></g></g><rect
     id="rect32"
     height="26.003"
     width="27.367"
     y="52.351"
     x="4.791" /><g
     id="g36"><path
       id="path34"
       d="M17.304,72.977c-1.062,0.881-2.539,1.319-4.418,1.319l-4.665,0.023v-1.343v-0.024V58.229H6.28v-1.545h6.605   c1.637,0,2.912,0.396,3.829,1.19c0.916,0.812,1.375,1.954,1.375,3.42c0,0.979-0.247,1.803-0.737,2.459   c-0.377,0.522-0.842,0.92-1.401,1.193c0.837,0.3,1.515,0.773,2.04,1.417c0.62,0.778,0.932,1.713,0.932,2.812   C18.923,70.835,18.383,72.096,17.304,72.977z M15.389,59.042c-0.655-0.541-1.513-0.813-2.576-0.813H9.989v6.108h2.602   c1.13,0,2.037-0.28,2.724-0.838c0.67-0.557,1.006-1.306,1.006-2.252C16.321,60.314,16.012,59.581,15.389,59.042z M16.053,66.745   c-0.755-0.572-1.833-0.864-3.241-0.864H9.989v6.867h2.775c1.408,0,2.494-0.306,3.263-0.914c0.752-0.589,1.131-1.443,1.131-2.555   C17.157,68.146,16.788,67.3,16.053,66.745z"
       fill="#F2F2F2" /></g><g
     id="g40"><path
       id="path38"
       d="M30.675,64.337v0.161c-0.012,1.053-0.151,1.949-0.418,2.69c-0.265,0.747-0.671,1.392-1.215,1.942   c-1.062,1.077-2.428,1.614-4.091,1.614c-1.763,0-3.203-0.621-4.324-1.849c-0.575-0.613-1.002-1.313-1.279-2.103   c-0.277-0.791-0.417-1.661-0.417-2.62c0-1.878,0.555-3.448,1.665-4.703c1.097-1.247,2.479-1.865,4.143-1.865   c0.89,0,1.744,0.215,2.56,0.646c0.565,0.311,1.055,0.693,1.468,1.144v-1.166h1.257v4.134h-1.192   c-0.164-0.609-0.376-1.112-0.637-1.501c-0.261-0.389-0.582-0.72-0.961-0.995c-0.774-0.539-1.599-0.81-2.478-0.81   c-1.271,0-2.322,0.471-3.148,1.419c-0.827,0.945-1.24,2.178-1.24,3.698c0,1.483,0.429,2.712,1.289,3.681   c0.848,0.958,1.952,1.435,3.309,1.435c1.075,0,2.021-0.328,2.838-0.986c0.717-0.586,1.169-1.395,1.352-2.422h-4.516v-1.383v-0.161   H30.675z"
       fill="#F2F2F2" /></g><text
     id="text42"
     letter-spacing="1"
     font-size="24.5271"
     font-family="'HelveticaNeue-Bold'"
     fill="#414042"
     transform="matrix(1 0 0 1 40.1768 26.1309)">TARZAN</text>
<text
     id="text48"
     transform="matrix(1 0 0 1 45.0835 34.9971)"><tspan
       id="tspan44"
       font-size="8.1757"
       font-family="'HelveticaNeue-Bold'"
       fill="#414042"
       y="0"
       x="0">ENTERPRISE LTD. </tspan><tspan
       id="tspan46"
       font-size="8.1757"
       font-family="'HelveticaNeue-Bold'"
       fill="#939598"
       y="0"
       x="79.483">1942</tspan></text>
<path
     id="path50"
     d="M18.703,19.292c0,0,0.328-0.112,0.261,3.35c0,0-0.114,1.027,0.555,0.97c0,0,1.653,0.206,0.679-2.539  l-0.357-0.956l0.363-0.729c0,0,0.553,2.035,2.033,1.526c0,0-0.567,0.773-1.503,0.159c0,0,0.535,3.232-1.19,3.232  c0,0-0.848,0.05-0.848-0.764c0,0,0.013,0.764-0.988,0.764c0,0-1.927,0.165-0.753-3.232l0.237-0.647c0,0-0.732,0.211-1.086,1.77  c0,0-0.137,0.757-0.668,0.757c0,0-0.457,0.036-0.517-0.786c0,0-0.166-1.382,0.926-2.329c0,0-1.301,2.155-0.288,2.423  c0,0,0.332,0.098,0.458-0.601c0,0,0.393-2.222,1.753-1.739c0,0,0.071,0.008,0.007,0.065c0,0-1.976,3.196,0.142,3.626  c0,0,0.689,0.241,0.689-0.97c0,0,0.055-2.35-0.205-2.445L18.703,19.292z"
     fill="#FFFFFF" /><path
     id="path52"
     d="M18.547,17.96c0,0.656-0.322,0.64-0.322,0.64s-0.448,0.123-0.172-0.93l-0.147-0.144  c0,0-0.407,2.118,0.703,1.007c0,0,0.004-0.009,0.006,0c1.11,1.111,0.704-1.007,0.704-1.007L19.17,17.67  c0.276,1.053-0.172,0.93-0.172,0.93c-0.411,0-0.196-1.071-0.196-1.071S18.547,17.514,18.547,17.96z"
     fill="#FFFFFF" /><rect
     id="rect54"
     height="0.421"
     width="0.419"
     fill="#FFFFFF"
     transform="matrix(0.7065 -0.7077 0.7077 0.7065 -12.2924 21.8952)"
     y="25.558"
     x="20.043" /><rect
     id="rect56"
     height="0.421"
     width="0.423"
     fill="#FFFFFF"
     transform="matrix(0.7083 -0.706 0.706 0.7083 -12.8395 21.5882)"
     y="26.118"
     x="19.488" /><rect
     id="rect58"
     height="0.422"
     width="0.422"
     fill="#FFFFFF"
     transform="matrix(0.7065 -0.7077 0.7077 0.7065 -12.5291 22.4443)"
     y="26.117"
     x="20.586" /><polygon
     id="polygon60"
     points="15.805,26.262 19.312,25.628 18.99,25.979 15.492,26.608 "
     fill="#FFFFFF" /><polygon
     id="polygon62"
     points="21.295,25.283 22.47,25.071 22.148,25.427 20.985,25.628 "
     fill="#FFFFFF" /><path
     id="path64"
     d="M17.686,27.022c0,0,0.308-0.3,0.241-0.035c0,0-0.263,0.479-0.606,0.229c0,0-0.314-0.003-0.679,0.405  C16.641,27.622,17.188,26.558,17.686,27.022z"
     fill="#FFFFFF" /><path
     id="path66"
     d="M18.521,16.545l0.122-0.37c0,0,0.23,0.478,0.141,0.982l-0.185,0.111  C18.599,17.269,18.704,16.728,18.521,16.545z"
     fill="#FFFFFF" /><g
     id="g72"><g
       id="g70"><path
         id="path68"
         d="M24.726,22.892c-0.267-0.59-0.57-1.166-0.827-1.76c-0.523-1.217-0.975-2.481-1.212-3.791    c-0.029-0.156-0.25-1.223-0.086-1.322c-0.481,0.291-0.914,0.454-1.303,0.534c-0.003-0.399,0.026-0.816,0.137-1.254    c-1.01,0.45-1.753,0.068-2.219-0.365c0.452-0.582,0.724-0.738,0.724-0.738c0.548-0.238,0.529,0.179,0.529,0.179    c0,0.493-0.54,0.352-0.54,0.352c0,0.388,0.785,0.245,0.785,0.245c0.211-0.013,0.479-0.087,0.625-0.247    c0.155-0.173,0.23-0.434,0.243-0.661c0.004-0.07,0.001-0.141-0.005-0.209c-0.007-0.077-0.02-0.153-0.036-0.228    c-0.088-0.406-0.489-0.55-0.854-0.588c-0.148-0.015-0.296-0.012-0.445,0c-0.079,0.007-0.161,0.001-0.236,0.015    c0.073-0.204,0.137-0.41,0.099-0.629c-0.041-0.226-0.167-0.43-0.302-0.61c-0.263-0.348-0.584-0.65-0.937-0.905    c-0.07-0.052-0.166-0.099-0.228-0.16c-0.02-0.02-0.043,0-0.043,0s-1.991,1.269-1.355,2.32c-0.017-0.029-0.185-0.025-0.21-0.029    c-0.161-0.012-0.323-0.017-0.486-0.006c-0.4,0.027-0.751,0.216-0.857,0.625c-0.056,0.222-0.043,0.496,0.018,0.716    c0.05,0.176,0.159,0.337,0.312,0.44c0.158,0.106,0.32,0.124,0.503,0.156c0,0,0.785,0.143,0.785-0.245c0,0-0.54,0.141-0.54-0.352    c0,0-0.019-0.417,0.53-0.179c0,0,0.272,0.157,0.726,0.743c-0.466,0.431-1.208,0.81-2.214,0.361    c0.177,0.405,0.231,0.842,0.22,1.275c-0.413-0.072-0.876-0.242-1.395-0.555c0.141,0.334,0.03,0.796-0.042,1.132    c-0.129,0.597-0.312,1.185-0.511,1.762c-0.421,1.211-0.909,2.401-1.413,3.58c-0.362,0.84-0.828,1.657-1.008,2.563    c-0.316,1.605-0.049,3.119,0.856,4.493c0.393,0.595,0.952,1.123,1.577,1.464c0.668,0.365,1.409,0.542,2.17,0.519    c0.518-0.016,1.057-0.083,1.563-0.197c0.461-0.1,0.963-0.213,1.37-0.464c0.021-0.008,0.04-0.023,0.059-0.036    c0.373-0.251,0.728-0.699,1.215-0.689c0.237,0.006,0.402,0.186,0.47,0.403c0.02,0.059,0.028,0.118,0.033,0.18    c0,0.548-0.745-0.121-0.745-0.121c-0.503-0.294-0.739,0.411-0.739,0.411c0.121-0.12,0.491,0.23,0.491,0.23    c0.798,0.636,1.312-0.458,1.312-0.458c0.365-0.663-0.247-1.029-0.601-1.294c-0.552-0.356-1.62,0.839-2.07,1.06    c-0.816,0.399-1.521,0.466-2.425,0.368c-0.98-0.107-1.786-0.518-2.552-1.144c-1.366-1.116-1.715-2.893-1.425-4.561    c0.103-0.583,0.272-1.166,0.475-1.722c0,0,2.733-6.282,2.381-6.635c0,0,0.38,0.134,0.911,0.172    c-0.163,1.224-0.774,2.297-0.774,2.297s-1.212,2.029-1.763,4.188c0,0-1.998,6.399,5.177,4.885    c0.357,1.092,1.809,0.298,1.809,0.298c0.954,0.75,1.535-0.551,1.535-0.551c0.383-0.864-0.539-1.504-0.539-1.504    c-0.136,0.136-0.279,0.269-0.407,0.412c0.179,0.272,0.44,0.471,0.53,0.801c0.056,0.198-0.014,0.278-0.146,0.406    c-0.117,0.114-0.272,0.224-0.444,0.191c-0.264-0.046-0.447-0.361-0.532-0.59c-0.043,0.061-0.09,0.121-0.14,0.178    c-0.172,0.197-0.417,0.398-0.692,0.404c-0.474,0.016-0.673-0.711-0.761-1.065c-0.193,0.665-1.868,0.629-1.868,0.629    c-6.099-0.686-1.318-8.683-1.318-8.683s0.629-1.105,0.74-2.288c0.72-0.026,1.587-0.278,2.199-1.173c0,0,0.023-0.021,0.047,0    c0.614,0.898,1.486,1.148,2.208,1.173c0.112,1.183,0.741,2.288,0.741,2.288s3.28,5.416,0.936,7.989    c0.373,0.567-0.022,1.104-0.022,1.104c2.484-1.192,1.291-4.905,1.291-4.905c-0.551-2.159-1.764-4.188-1.764-4.188    s-0.581-0.959-0.711-2.302c0.495-0.045,0.842-0.167,0.842-0.167c-0.353,0.353,2.379,6.635,2.379,6.635    c2.093,6.195-2.672,7.268-2.672,7.268s-0.008,0.201-0.258,0.513c1.099-0.386,2.384-1.052,3.129-1.974    C26.324,27.34,25.656,24.953,24.726,22.892z M17.303,13.855c0,0-0.785-0.217-0.785,0.786c0,0-0.586-0.162-0.436-0.786    c0,0,0.218-0.939,1.705-0.284c0,0-0.952-1.25,0.807-2.255c0,0,0.019-0.015,0.043,0c1.76,1.004,0.809,2.255,0.809,2.255    c1.485-0.655,1.704,0.284,1.704,0.284c0.151,0.625-0.437,0.786-0.437,0.786c0-1.003-0.785-0.786-0.785-0.786    c-0.292,0-0.662,0.46-0.927,0.855c-0.109-0.127-0.196-0.247-0.255-0.338c1.418-2.284-0.11-2.25-0.11-2.25h-0.041    c0,0-1.533-0.034-0.105,2.258c-0.06,0.092-0.146,0.21-0.255,0.336C17.969,14.32,17.598,13.855,17.303,13.855z M18.636,14.132    c-0.021,0.034-0.041,0-0.041,0c-0.111-0.188-0.223-0.38-0.304-0.583c-0.061-0.151-0.102-0.309-0.128-0.471    c-0.02-0.121-0.056-0.293,0.032-0.398c0.058-0.069,0.155-0.089,0.239-0.098c0.158-0.019,0.461-0.04,0.587,0.084    c0.095,0.094,0.065,0.261,0.05,0.38c-0.04,0.325-0.173,0.601-0.324,0.888C18.712,14.001,18.676,14.069,18.636,14.132z     M16.399,16.616c-0.006-0.247-0.031-0.492-0.104-0.725c0,0,1.073,0.178,1.928-0.674c0.078,0.109,0.159,0.232,0.245,0.366    C18.208,15.934,17.535,16.657,16.399,16.616z M18.615,15.341l-0.043-0.074c0,0-0.064-0.117-0.162-0.278    c0.063-0.079,0.129-0.148,0.188-0.241c0.008-0.013,0.021-0.042,0.021-0.042c0.011,0.026,0.023,0.042,0.023,0.042    c0.057,0.091,0.122,0.158,0.183,0.236c-0.1,0.164-0.165,0.283-0.165,0.283L18.615,15.341z M20.84,16.615    c-1.139,0.045-1.815-0.679-2.076-1.032c0.086-0.135,0.169-0.259,0.247-0.37c0.853,0.859,1.933,0.677,1.933,0.677    C20.871,16.124,20.846,16.369,20.84,16.615z"
         fill="#FFFFFF" /></g></g></svg>